<?xml version="1.0" encoding="UTF-8" standalone="no"?>
<svg
   xmlns:dc="http://purl.org/dc/elements/1.1/"
   xmlns:cc="http://creativecommons.org/ns#"
   xmlns:rdf="http://www.w3.org/1999/02/22-rdf-syntax-ns#"
   xmlns:svg="http://www.w3.org/2000/svg"
   xmlns="http://www.w3.org/2000/svg"
   xmlns:sodipodi="http://sodipodi.sourceforge.net/DTD/sodipodi-0.dtd"
   xmlns:inkscape="http://www.inkscape.org/namespaces/inkscape"
   width="210mm"
   height="297mm"
   viewBox="0 0 210 297"
   version="1.1"
   id="svg8"
   inkscape:version="1.0.2 (e86c870879, 2021-01-15, custom)"
   sodipodi:docname="Knob.svg">
  <defs
     id="defs2">
    <inkscape:path-effect
       effect="skeletal"
       id="path-effect1359"
       is_visible="true"
       lpeversion="1"
       pattern="m 73.145776,14.169771 a 0.60000002,0.60000002 0 0 1 -0.6,0.6 0.60000002,0.60000002 0 0 1 -0.6,-0.6 0.60000002,0.60000002 0 0 1 0.6,-0.6 0.60000002,0.60000002 0 0 1 0.6,0.6 z"
       copytype="repeated"
       prop_scale="0.87"
       scale_y_rel="false"
       spacing="2.2"
       normal_offset="0.9"
       tang_offset="4.6"
       prop_units="false"
       vertical_pattern="false"
       hide_knot="false"
       fuse_tolerance="0" />
    <inkscape:path-effect
       effect="skeletal"
       id="path-effect1327"
       is_visible="true"
       lpeversion="1"
       pattern="m 73.145776,14.169771 a 0.60000002,0.60000002 0 0 1 -0.6,0.6 0.60000002,0.60000002 0 0 1 -0.6,-0.6 0.60000002,0.60000002 0 0 1 0.6,-0.6 0.60000002,0.60000002 0 0 1 0.6,0.6 z"
       copytype="repeated"
       prop_scale="0.87"
       scale_y_rel="false"
       spacing="2.2"
       normal_offset="1"
       tang_offset="4.6"
       prop_units="false"
       vertical_pattern="false"
       hide_knot="false"
       fuse_tolerance="0" />
    <inkscape:path-effect
       effect="skeletal"
       id="path-effect1281"
       is_visible="true"
       lpeversion="1"
       pattern="m 73.145776,14.169771 a 0.60000002,0.60000002 0 0 1 -0.6,0.6 0.60000002,0.60000002 0 0 1 -0.6,-0.6 0.60000002,0.60000002 0 0 1 0.6,-0.6 0.60000002,0.60000002 0 0 1 0.6,0.6 z"
       copytype="repeated"
       prop_scale="0.87"
       scale_y_rel="false"
       spacing="2.2"
       normal_offset="1"
       tang_offset="4.6"
       prop_units="false"
       vertical_pattern="false"
       hide_knot="false"
       fuse_tolerance="0" />
    <inkscape:path-effect
       effect="skeletal"
       id="path-effect1246"
       is_visible="true"
       lpeversion="1"
       pattern="m 73.145776,14.169771 a 0.60000002,0.60000002 0 0 1 -0.6,0.6 0.60000002,0.60000002 0 0 1 -0.6,-0.6 0.60000002,0.60000002 0 0 1 0.6,-0.6 0.60000002,0.60000002 0 0 1 0.6,0.6 z"
       copytype="repeated"
       prop_scale="0.87"
       scale_y_rel="false"
       spacing="1.7"
       normal_offset="1"
       tang_offset="12.5"
       prop_units="false"
       vertical_pattern="false"
       hide_knot="false"
       fuse_tolerance="0" />
  </defs>
  <sodipodi:namedview
     id="base"
     pagecolor="#ffffff"
     bordercolor="#666666"
     borderopacity="1.0"
     inkscape:pageopacity="0.0"
     inkscape:pageshadow="2"
     inkscape:zoom="1.4041117"
     inkscape:cx="145.40478"
     inkscape:cy="181.39201"
     inkscape:document-units="mm"
     inkscape:current-layer="layer1"
     inkscape:document-rotation="0"
     showgrid="false"
     inkscape:window-width="1920"
     inkscape:window-height="1137"
     inkscape:window-x="3832"
     inkscape:window-y="-8"
     inkscape:window-maximized="1" />
  <metadata
     id="metadata5">
    <rdf:RDF>
      <cc:Work
         rdf:about="">
        <dc:format>image/svg+xml</dc:format>
        <dc:type
           rdf:resource="http://purl.org/dc/dcmitype/StillImage" />
        <dc:title></dc:title>
      </cc:Work>
    </rdf:RDF>
  </metadata>
  <g
     inkscape:label="Layer 1"
     inkscape:groupmode="layer"
     id="layer1">
    <circle
       style="fill:#969696;fill-opacity:1;stroke:#000000;stroke-width:0.465;stroke-opacity:1"
       id="path24-2"
       cy="78.813492"
       cx="34.110321"
       r="8.5" />
    <circle
       style="fill:#000000;stroke:#000000;stroke-width:0.465;stroke-opacity:1;fill-opacity:1"
       id="path849-4"
       cx="34.110321"
       cy="78.893494"
       r="4.8000002" />
    <path
       style="fill:none;fill-opacity:1;stroke:#b20000;stroke-width:0.165;stroke-miterlimit:4;stroke-dasharray:none;stroke-opacity:1"
       id="circle1233"
       inkscape:path-effect="#path-effect1359"
       sodipodi:type="arc"
       sodipodi:cx="85.303139"
       sodipodi:cy="-10.156793"
       sodipodi:rx="8.5"
       sodipodi:ry="8.5"
       transform="rotate(73.374232)"
       d="m 91.209224,-5.3807903 c -0.220928,-0.1831369 -0.24705,-0.5140652 -0.08433,-0.7366791 0.162611,-0.2224693 0.485553,-0.2983962 0.727302,-0.1460757 0.241816,0.152363 0.306637,0.4904339 0.11359,0.7561634 -0.192948,0.2655929 -0.535691,0.3096778 -0.756559,0.1265914 z m -2.361375,1.9820101 c -0.139918,-0.248638 -0.04867,-0.5668281 0.180517,-0.7180155 0.229378,-0.1513149 0.558049,-0.1094648 0.73024,0.1198682 0.172131,0.229252 0.111788,0.56918 -0.162516,0.7487561 -0.274487,0.1796955 -0.608274,0.098118 -0.748241,-0.1506088 z m -2.875599,0.9311088 c -0.02877,-0.2844231 0.177162,-0.5346065 0.437076,-0.5800717 0.260421,-0.045554 0.542409,0.1190286 0.613899,0.3941041 0.07145,0.2749116 -0.109649,0.5644552 -0.430332,0.6220687 -0.321164,0.0577 -0.591857,-0.1515117 -0.620643,-0.4361011 z m -2.984172,-0.3683179 c 0.09464,-0.268357 0.390488,-0.4071855 0.647445,-0.3372537 0.25649,0.069805 0.439229,0.3386396 0.385197,0.6180426 -0.05406,0.2795783 -0.342014,0.4626648 -0.656494,0.376945 -0.314039,-0.085599 -0.470728,-0.3895454 -0.376148,-0.6577339 z m -2.633352,-1.5618622 c 0.188965,-0.2160422 0.520754,-0.233487 0.739353,-0.064716 0.218481,0.1686792 0.285906,0.4938444 0.12694,0.7315528 -0.159003,0.2377639 -0.499038,0.2933244 -0.759659,0.093151 -0.260509,-0.2000873 -0.295555,-0.5439953 -0.106634,-0.7599877 z M 78.43721,-6.8090016 c 0.25223,-0.1328249 0.567378,-0.033107 0.711981,0.1995288 0.14474,0.2328565 0.09414,0.5598869 -0.139609,0.725783 -0.233663,0.1658308 -0.57164,0.096518 -0.743544,-0.1823504 -0.172032,-0.2790772 -0.08116,-0.6100834 0.171172,-0.7429614 z m -0.840225,-2.8989833 c 0.285932,-0.019444 0.528865,0.1946945 0.565328,0.4554818 0.03654,0.2613029 -0.137319,0.5378004 -0.41445,0.600733 -0.276975,0.062897 -0.560889,-0.1268712 -0.608148,-0.4495597 -0.04733,-0.323179 0.17118,-0.5872001 0.45727,-0.6066551 z m 0.462785,-2.9724941 c 0.265626,0.102581 0.395363,0.402826 0.317075,0.658192 -0.07815,0.254918 -0.353035,0.429341 -0.630366,0.366622 -0.277506,-0.06276 -0.45127,-0.356328 -0.355945,-0.668063 0.0952,-0.311311 0.403775,-0.459268 0.669236,-0.356751 z m 1.636099,-2.593321 c 0.210992,0.194626 0.219781,0.526997 0.04514,0.741391 -0.174562,0.214301 -0.501661,0.273211 -0.735168,0.10776 -0.233551,-0.165482 -0.279866,-0.507192 -0.07276,-0.762519 0.207038,-0.255239 0.551828,-0.281221 0.762781,-0.08663 z m 2.458998,-1.851095 c 0.125573,0.255664 0.0174,0.567473 -0.218496,0.70531 -0.236143,0.137982 -0.561257,0.07862 -0.72069,-0.159395 -0.159364,-0.237906 -0.08111,-0.573654 0.20214,-0.737694 0.283483,-0.164176 0.611418,-0.064 0.737046,0.191779 z m 2.920441,-0.747415 c 0.0099,0.287294 -0.212363,0.522659 -0.473844,0.549949 -0.262001,0.02735 -0.532714,-0.155832 -0.586931,-0.434841 -0.05419,-0.278861 0.144242,-0.556887 0.468744,-0.59359 0.324998,-0.03676 0.582079,0.191041 0.592031,0.478482 z m 2.958113,0.555896 c -0.110357,0.26272 -0.414716,0.38341 -0.668302,0.296941 -0.25316,-0.08632 -0.419245,-0.366944 -0.348004,-0.642054 0.07129,-0.275282 0.370197,-0.43972 0.678996,-0.334989 0.308396,0.104594 0.447599,0.417543 0.33731,0.680102 z m 2.551363,1.70841 c -0.20012,0.205778 -0.532795,0.20593 -0.742793,0.02561 -0.20993,-0.180257 -0.260313,-0.509003 -0.08854,-0.738147 0.171801,-0.229176 0.514895,-0.266262 0.764743,-0.05241 0.249784,0.213801 0.266679,0.559188 0.06659,0.764939 z m 1.782748,2.504918 c -0.258941,0.118162 -0.567115,0.0015 -0.698004,-0.237419 -0.131039,-0.239238 -0.06287,-0.562157 0.179225,-0.714961 0.241983,-0.152731 0.575224,-0.06556 0.731209,0.221885 0.156127,0.287704 0.04664,0.612278 -0.21243,0.730495 z m 0.652678,2.939973 c -0.28851,2.79e-4 -0.515987,-0.230165 -0.533934,-0.492161 -0.01798,-0.262518 0.174569,-0.527152 0.455276,-0.572494 0.280571,-0.04532 0.55245,0.161762 0.578397,0.487884 0.02599,0.32662 -0.211097,0.576493 -0.499739,0.576771 z" />
  </g>
</svg>
